<svg version="1.1"
     xmlns="http://www.w3.org/2000/svg">

    <symbol id="youtube" viewBox="0 0 100 100">
        <path d="M77.4,24.2c1.5,0.2,4.9,0.2,7.9,3.3c0,0,2.4,2.4,3.1,7.8c0.8,6.3,0.8,12.7,0.8,12.7v5.9c0,0,0,6.3-0.8,12.7
		c-0.7,5.4-3.1,7.8-3.1,7.8c-3,3.1-6.3,3.1-7.9,3.3c0,0-10.9,0.8-27.4,0.8c-20.3-0.2-26.6-0.8-26.6-0.8c-1.7-0.3-5.7-0.2-8.6-3.3
		c0,0-2.4-2.4-3.1-7.8c-0.8-6.3-0.8-12.7-0.8-12.7v-5.9c0,0,0-6.3,0.8-12.7c0.7-5.4,3.1-7.8,3.1-7.8c3-3.1,6.3-3.1,7.9-3.3
		c0,0,10.9-0.8,27.4-0.8C66.5,23.4,77.4,24.2,77.4,24.2z M63,50.1L41.9,39V61L63,50.1z"/>
    </symbol>

    <symbol id="whatsapp" viewBox="0 0 100 100">
        <path d="M83.5,50c0,18.1-14.7,32.9-32.9,32.9c-5.5,0-11-1.4-15.9-4.1l-18.2,5.8L22.4,67c-3.1-5.1-4.7-11-4.7-17
		c0-18.1,14.7-32.9,32.9-32.9S83.5,31.8,83.5,50z M78,50c0-15.1-12.3-27.4-27.4-27.4S23.2,34.9,23.2,50c0,5.8,1.8,11.4,5.2,16.1
		L25,76.2l10.6-3.4c4.4,2.9,9.7,4.5,15.1,4.5C65.7,77.4,78,65.1,78,50z M67.6,58.5c0.1,0.2,0.1,0.5,0.1,0.7c0,1.1-0.3,2.3-0.7,3.3
		c-1,2.4-5.1,4-7.5,4c-2.1,0-6.4-1.8-8.3-2.7c-6.2-2.8-10.1-7.7-13.9-13.2c-1.7-2.4-3.1-5.5-3.1-8.5v-0.3c0.1-2.9,1.1-4.9,3.2-6.9
		c0.7-0.6,1.4-1,2.3-1c0.5,0,1,0.1,1.6,0.1c1.2,0,1.4,0.3,1.8,1.5c0.3,0.7,2.5,6.7,2.5,7.1c0,1.7-3,3.5-3,4.5c0,0.2,0.1,0.4,0.2,0.7
		c1,2.1,2.8,4.4,4.4,6c2,1.9,4.1,3.2,6.6,4.4c0.3,0.2,0.6,0.3,1,0.3c1.3,0,3.5-4.2,4.6-4.2C60.2,54.3,67.3,58,67.6,58.5z"/>
    </symbol>

    <symbol id="twitter" viewBox="0 0 100 100">
        <path d="M83.5,71.8c0,6.9-5.6,12.6-12.6,12.6H29.1c-6.9,0-12.6-5.6-12.6-12.6V29.9c0-6.9,5.6-12.6,12.6-12.6h41.9
		c6.9,0,12.6,5.6,12.6,12.6V71.8z M67.1,39.9c1.9-1.1,3.4-3,4.1-5.1c-1.8,1-3.8,1.8-5.8,2.2c-1.7-1.8-4.1-2.9-6.7-2.9
		c-5.1,0-9.2,4.1-9.2,9.2c0,0.7,0,1.4,0.2,2.1c-7.6-0.4-14.4-4-18.9-9.6c-0.8,1.4-1.3,3-1.3,4.6c0,3.2,1.5,6,4,7.6
		c-1.5,0-3-0.5-4.4-1.1c0,0,0,0,0,0.1c0,4.5,3.4,8.2,7.5,9c-0.8,0.2-1.4,0.3-2.2,0.3c-0.6,0-1.1-0.1-1.7-0.2
		c1.2,3.6,4.5,6.3,8.6,6.4c-3.1,2.4-7.1,3.9-11.4,3.9c-0.7,0-1.5,0-2.2-0.1c4.1,2.6,8.9,4.1,14,4.1c16.8,0,26.1-14,26.1-26.1
		c0-0.4,0-0.8,0-1.2c1.8-1.3,3.4-2.9,4.6-4.8C70.7,39.1,68.9,39.6,67.1,39.9z"/>
    </symbol>

    <symbol id="facebook" viewBox="0 0 100 100">
        <path d="M83.5,29.9v41.9c0,6.9-5.6,12.6-12.6,12.6h-8.2v-26h8.7l1.3-10.1h-10v-6.5c0-2.9,0.8-4.9,5-4.9l5.3,0v-9
		c-0.9-0.1-4.1-0.4-7.8-0.4c-7.7,0-13,4.7-13,13.3v7.5h-8.7v10.1h8.7v26H29.1c-6.9,0-12.6-5.6-12.6-12.6V29.9
		c0-6.9,5.6-12.6,12.6-12.6h41.9C77.9,17.4,83.5,23,83.5,29.9z"/>
    </symbol>

    <symbol id="chrome" viewBox="0 0 100 100">
        <!--left-part-->
    <path id="chromeleft" d="M32,58.4c4.1,8.2,12.9,13.1,22,11.4l-10,19.7c-18.7-2.9-33-19.1-33-38.6c0-7.9,2.4-15.3,6.4-21.4L32,58.4z"/>
        <!--top-part-->
    <path id="chrometop" d="M69.5,17c6.8,4,12,9.7,15.4,16.2l-32.4-1.7c-9.2-0.5-17.9,4.6-20.9,13.3l-12-18.5c7.5-9.3,18.8-14.5,30.3-14.5C56.5,11.7,63.3,13.4,69.5,17z"/>
        <!--middle-part-->
    <path id="chromemiddle" d="M63.2,50.9C63.2,58.2,57.3,64,50,64c-7.3,0-13.2-5.9-13.2-13.2S42.7,37.7,50,37.7C57.3,37.7,63.2,43.6,63.2,50.9z"/>
        <!--right-part-->
    <path id="chromeright" d="M69.5,84.7c-6.8,4-14.4,5.6-21.7,5.2l17.7-27.2c5-7.7,4.9-17.8-1-24.8l22-1.1C93.3,54.4,86.5,75,69.5,84.7z"/>
    </symbol>

    <symbol id="home" viewBox="0 0 100 100">
    <path d="M82.2,55.3c-0.2,0.3-0.6,0.4-0.9,0.5c0,0-0.1,0-0.1,0c-0.3,0-0.7-0.1-0.9-0.3L50,30.3L19.8,55.5c-0.3,0.2-0.7,0.3-1,0.3
		c-0.3,0-0.7-0.2-0.9-0.5L15.1,52c-0.5-0.6-0.4-1.5,0.2-2L46.7,24c1.8-1.5,4.8-1.5,6.6,0L64,32.9v-8.5c0-0.8,0.6-1.4,1.4-1.4h8.4
		c0.8,0,1.4,0.6,1.4,1.4v17.8l9.6,7.9c0.6,0.5,0.7,1.4,0.2,2L82.2,55.3z M75.1,76c0,1.5-1.3,2.8-2.8,2.8H55.6V62H44.4v16.8H27.7
		c-1.5,0-2.8-1.3-2.8-2.8V55.1c0-0.1,0-0.2,0-0.3L50,34.1l25.1,20.7c0,0.1,0,0.2,0,0.3V76z"/>
    </symbol>

    <symbol id="gear" viewBox="0 0 100 100">
    <path d="M83.5,55.8c0,0.7-0.5,1.4-1.2,1.6l-8.1,1.2c-0.5,1.4-1,2.7-1.7,4c1.5,2.1,3.1,4.1,4.7,6c0.3,0.3,0.4,0.7,0.4,1.1
		s-0.1,0.7-0.4,1c-1,1.4-6.9,7.8-8.4,7.8c-0.4,0-0.8-0.2-1.1-0.4l-6-4.7c-1.3,0.7-2.6,1.2-4,1.7c-0.3,2.7-0.6,5.5-1.3,8.1
		c-0.2,0.7-0.8,1.2-1.6,1.2h-9.7c-0.8,0-1.5-0.6-1.6-1.3l-1.2-8c-1.4-0.4-2.7-1-3.9-1.6l-6.2,4.7c-0.3,0.3-0.7,0.4-1.1,0.4
		s-0.8-0.2-1.1-0.5c-2.3-2.1-5.4-4.8-7.2-7.3c-0.2-0.3-0.3-0.7-0.3-1c0-0.4,0.1-0.7,0.3-1c1.5-2,3.1-3.9,4.6-6
		c-0.7-1.4-1.4-2.8-1.8-4.3l-8-1.2c-0.7-0.1-1.3-0.8-1.3-1.6v-9.7c0-0.7,0.5-1.4,1.2-1.6l8.1-1.2c0.4-1.4,1-2.7,1.7-4
		c-1.5-2.1-3.1-4.1-4.7-6c-0.3-0.3-0.4-0.7-0.4-1s0.2-0.7,0.4-1c1-1.4,6.9-7.8,8.4-7.8c0.4,0,0.8,0.2,1.1,0.4l6,4.7
		c1.3-0.7,2.6-1.2,4-1.7c0.3-2.7,0.6-5.5,1.3-8.1c0.2-0.7,0.8-1.2,1.6-1.2h9.7c0.8,0,1.5,0.6,1.6,1.3l1.2,8c1.4,0.4,2.7,1,3.9,1.6
		l6.2-4.7c0.3-0.3,0.7-0.4,1-0.4s0.8,0.2,1.1,0.4c2.3,2.1,5.4,4.8,7.2,7.4c0.2,0.3,0.3,0.6,0.3,1c0,0.4-0.1,0.7-0.3,1
		c-1.5,2-3.1,3.9-4.6,6c0.7,1.4,1.4,2.8,1.8,4.3l8,1.2c0.7,0.1,1.3,0.8,1.3,1.6V55.8z M50,39.7c-6.2,0-11.2,5-11.2,11.2
		C38.8,57,43.9,62,50,62c6.2,0,11.2-5,11.2-11.2C61.2,44.7,56.2,39.7,50,39.7z"/>
    </symbol>

    <symbol id="briefcase" viewBox="0 0 100 100">
    <path d="M89.1,46.7H10.9V29.9c0-3.8,3.1-7,7-7h15.4v-7c0-2.3,1.9-4.2,4.2-4.2h25.1c2.3,0,4.2,1.9,4.2,4.2v7h15.4c3.8,0,7,3.1,7,7
		V46.7z M89.1,71.8c0,3.8-3.1,7-7,7H17.9c-3.8,0-7-3.1-7-7V50.9h29.3v7c0,1.5,1.3,2.8,2.8,2.8h14c1.5,0,2.8-1.3,2.8-2.8v-7h29.3
		V71.8z M61.2,22.9v-5.6H38.8v5.6H61.2z M55.6,56.5H44.4v-5.6h11.2V56.5z"/>
    </symbol>

    <symbol id="pencil" viewBox="0 0 100 100">
    <path d="M70.9,48.1L34.6,84.4H16.5V66.2l36.3-36.3L70.9,48.1z M36.3,74.8L26.1,64.6l-4,4v4.7h5.6v5.6h4.7L36.3,74.8z M54.2,37.3
		c-0.3,0-0.5,0.1-0.7,0.3L29.8,61.3c-0.2,0.2-0.3,0.5-0.3,0.7c0,0.6,0.4,1,1,1c0.3,0,0.5-0.1,0.7-0.3L54.8,39
		c0.2-0.2,0.3-0.5,0.3-0.7C55.2,37.7,54.8,37.3,54.2,37.3z M81,38l-7.2,7.2L55.6,27.1l7.2-7.2c1-1,2.4-1.7,3.9-1.7s2.9,0.6,4,1.7
		L81,30.1c1,1,1.6,2.5,1.6,4S82,37,81,38z"/>
    </symbol>

    <symbol id="universal" viewBox="0 0 100 100">
    <path d="M50,90c-21.6,0-39.1-17.5-39.1-39.1c0-21.6,17.5-39.1,39.1-39.1c21.6,0,39.1,17.5,39.1,39.1C89.1,72.5,71.6,90,50,90z
		 M16.5,50.9c0,18.5,15.1,33.5,33.5,33.5s33.5-15.1,33.5-33.5S68.5,17.4,50,17.4S16.5,32.4,16.5,50.9z M50,81.6
		c-17,0-30.7-13.7-30.7-30.7S33,20.2,50,20.2c17,0,30.7,13.7,30.7,30.7S67,81.6,50,81.6z M67.5,38.4c-6.2,1.5-11.9,2.7-17.5,2.7
		s-11.3-1.2-17.5-2.7c-1.5-0.3-3,0.6-3.4,2.1c-0.3,1.5,0.6,3,2,3.4c4.6,1.1,8.9,2.1,13.2,2.5c-0.2,14.7-1.8,18.8-3.6,23.6l-0.4,0.9
		c-0.6,1.4,0.2,3.1,1.6,3.6c0.3,0.1,0.7,0.2,1,0.2c1.1,0,2.2-0.7,2.6-1.8l0.3-0.9c1.2-3.1,2.4-6.1,3.1-11.3h1.8
		c0.7,5.2,1.9,8.2,3.1,11.3l0.3,0.9c0.4,1.1,1.5,1.8,2.6,1.8c0.3,0,0.7,0,1-0.2c1.4-0.6,2.2-2.2,1.6-3.6l-0.4-0.9
		c-1.8-4.7-3.4-8.8-3.6-23.6c4.3-0.5,8.6-1.4,13.2-2.5c1.5-0.3,2.4-1.8,2.1-3.4C70.5,39,69,38,67.5,38.4z M50,28.5
		c-3.1,0-5.6,2.5-5.6,5.6c0,3.1,2.5,5.6,5.6,5.6c3.1,0,5.6-2.5,5.6-5.6C55.6,31,53.1,28.5,50,28.5z"/>
    </symbol>

    <symbol id="plus" viewBox="0 0 100 100">
    <circle class="st0" cx="50" cy="50" r="39.9"/>
    <circle class="st1" cx="50" cy="50" r="2.3"/>
    <path class="st1" d="M80.5,47.7H52.3V19.5c0-1.3-1.1-2.3-2.3-2.3s-2.3,1.1-2.3,2.3v28.2H19.5c-1.3,0-2.3,1.1-2.3,2.3
	c0,1.3,1.1,2.3,2.3,2.3h28.2v28.2c0,1.3,1.1,2.3,2.3,2.3s2.3-1.1,2.3-2.3V52.3h28.2c1.3,0,2.3-1.1,2.3-2.3
	C82.9,48.7,81.8,47.7,80.5,47.7z"/>
    </symbol>

    <symbol id="inbox" viewBox="0 0 100 100">
    <path d="M83.6,76.1c0,1.5-1.3,2.8-2.8,2.8H19.2c-1.5,0-2.8-1.3-2.8-2.8V55c0-1.6,0.5-3.9,1.1-5.4l10.4-24.1
		c0.6-1.4,2.4-2.6,3.9-2.6h36.4c1.5,0,3.3,1.1,3.9,2.6l10.4,24.1c0.6,1.5,1.1,3.8,1.1,5.4V76.1z M75,53.7c-0.1-0.2-0.1-0.5-0.2-0.7
		l-9.3-21.7h-31L25.3,53c-0.1,0.2-0.1,0.5-0.2,0.7h13.8l4.2,8.4h14l4.2-8.4H75z"/>
    </symbol>

    <symbol id="notch" viewBox="0 0 100 100">
    <path d="M50,88.6c-20.8,0-37.7-16.9-37.7-37.7c0-18.9,14-34.6,32.1-37.3v10c-12.7,2.6-22.3,13.9-22.3,27.4
		c0,15.4,12.5,27.9,27.9,27.9c15.4,0,27.9-12.5,27.9-27.9c0-13.5-9.6-24.8-22.3-27.4v-10c18.2,2.7,32.1,18.4,32.1,37.3
		C87.7,71.7,70.8,88.6,50,88.6z"/>
    </symbol>

    <symbol id="loading" viewBox="0 0 100 100">
    <path d="M19.2,56.5c-3.1,0-5.6-2.5-5.6-5.6c0-3.1,2.5-5.6,5.6-5.6c3.1,0,5.6,2.5,5.6,5.6C24.8,54,22.3,56.5,19.2,56.5z M28.2,36.1
		c-3.8,0-7-3.1-7-7s3.1-7,7-7s7,3.1,7,7S32.1,36.1,28.2,36.1z M28.2,78.2c-3.1,0-5.6-2.5-5.6-5.6c0-3.1,2.5-5.6,5.6-5.6
		c3.1,0,5.6,2.5,5.6,5.6C33.8,75.7,31.3,78.2,28.2,78.2z M50,28.5c-4.6,0-8.4-3.8-8.4-8.4s3.8-8.4,8.4-8.4c4.6,0,8.4,3.8,8.4,8.4
		S54.6,28.5,50,28.5z M50,87.2c-3.1,0-5.6-2.5-5.6-5.6c0-3.1,2.5-5.6,5.6-5.6c3.1,0,5.6,2.5,5.6,5.6C55.6,84.7,53.1,87.2,50,87.2z
		 M71.8,38.9c-5.4,0-9.8-4.4-9.8-9.8c0-5.4,4.4-9.8,9.8-9.8c5.4,0,9.8,4.4,9.8,9.8C81.5,34.5,77.1,38.9,71.8,38.9z M71.8,78.2
		c-3.1,0-5.6-2.5-5.6-5.6c0-3.1,2.5-5.6,5.6-5.6c3.1,0,5.6,2.5,5.6,5.6C77.4,75.7,74.8,78.2,71.8,78.2z M80.8,56.5
		c-3.1,0-5.6-2.5-5.6-5.6c0-3.1,2.5-5.6,5.6-5.6c3.1,0,5.6,2.5,5.6,5.6C86.4,54,83.9,56.5,80.8,56.5z"/>
    </symbol>

    <symbol id="smiley" viewBox="0 0 100 100">
    <path d="M50,84.4c-18.5,0-33.5-15-33.5-33.5s15-33.5,33.5-33.5c18.5,0,33.5,15,33.5,33.5S68.5,84.4,50,84.4z M50,22.9
		c-15.4,0-27.9,12.5-27.9,27.9c0,15.4,12.5,27.9,27.9,27.9C65.4,78.8,78,66.3,78,50.9C78,35.5,65.4,22.9,50,22.9z M38.8,45.3
		c-3.1,0-5.6-2.5-5.6-5.6s2.5-5.6,5.6-5.6s5.6,2.5,5.6,5.6S41.9,45.3,38.8,45.3z M50,70.4c-7.4,0-13.8-4.7-16-11.7
		c-0.5-1.5,0.3-3,1.8-3.5c1.4-0.5,3,0.3,3.5,1.8c1.4,4.7,5.8,7.8,10.7,7.8s9.2-3.1,10.7-7.8c0.5-1.5,2.1-2.3,3.5-1.8
		c1.4,0.5,2.3,2,1.8,3.5C63.8,65.7,57.4,70.4,50,70.4z M61.2,45.3c-3.1,0-5.6-2.5-5.6-5.6s2.5-5.6,5.6-5.6c3.1,0,5.6,2.5,5.6,5.6
		S64.3,45.3,61.2,45.3z"/>
    </symbol>

    <symbol id="phone" viewBox="0 0 100 100">
    <path d="M79.4,72c-0.9,2.1-3.4,3.5-5.3,4.6c-2.6,1.4-5.2,2.2-8.1,2.2c-4.1,0-7.7-1.7-11.4-3c-2.7-1-5.2-2.1-7.6-3.6
		c-7.4-4.6-16.4-13.5-21-21c-1.5-2.4-2.7-5-3.6-7.6c-1.4-3.7-3-7.4-3-11.4c0-2.9,0.8-5.5,2.2-8.1c1.1-2,2.5-4.4,4.6-5.3
		c1.4-0.7,4.5-1.4,6.1-1.4c0.3,0,0.6,0,0.9,0.1c0.9,0.3,1.9,2.4,2.3,3.3c1.4,2.5,2.8,5,4.2,7.5c0.7,1.1,2,2.5,2,3.9
		c0,2.7-7.9,6.6-7.9,8.9c0,1.2,1.1,2.7,1.7,3.8c4.4,7.9,9.9,13.5,17.9,17.9c1,0.6,2.6,1.7,3.8,1.7c2.4,0,6.2-7.9,8.9-7.9
		c1.4,0,2.8,1.3,3.9,2c2.4,1.4,5,2.8,7.5,4.2c0.9,0.4,3,1.4,3.3,2.3c0.1,0.3,0.1,0.6,0.1,0.9C80.7,67.5,80,70.5,79.4,72z"/>
    </symbol>

    <symbol id="calendar" viewBox="0 0 100 100">
    <path d="M86.3,84.4c0,3.1-2.5,5.6-5.6,5.6H19.3c-3.1,0-5.6-2.5-5.6-5.6V28.5c0-3.1,2.5-5.6,5.6-5.6h5.6v-4.2c0-3.8,3.1-7,7-7h2.8
		c3.8,0,7,3.1,7,7v4.2h16.8v-4.2c0-3.8,3.1-7,7-7h2.8c3.8,0,7,3.1,7,7v4.2h5.6c3.1,0,5.6,2.5,5.6,5.6V84.4z M31.8,52.3V39.7H19.3
		v12.6H31.8z M31.8,69v-14H19.3v14H31.8z M31.8,84.4V71.8H19.3v12.6H31.8z M36,18.7c0-0.7-0.7-1.4-1.4-1.4h-2.8
		c-0.7,0-1.4,0.7-1.4,1.4v12.6c0,0.7,0.7,1.4,1.4,1.4h2.8c0.7,0,1.4-0.7,1.4-1.4V18.7z M48.6,52.3V39.7h-14v12.6H48.6z M48.6,69v-14
		h-14v14H48.6z M48.6,84.4V71.8h-14v12.6H48.6z M65.4,52.3V39.7h-14v12.6H65.4z M65.4,69v-14h-14v14H65.4z M65.4,84.4V71.8h-14v12.6
		H65.4z M69.6,18.7c0-0.7-0.7-1.4-1.4-1.4h-2.8c-0.7,0-1.4,0.7-1.4,1.4v12.6c0,0.7,0.7,1.4,1.4,1.4h2.8c0.7,0,1.4-0.7,1.4-1.4V18.7z
		 M80.7,52.3V39.7H68.2v12.6H80.7z M80.7,69v-14H68.2v14H80.7z M80.7,84.4V71.8H68.2v12.6H80.7z"/>
    </symbol>

    <symbol id="dashboard" viewBox="0 0 100 100">
    <path d="M83,83.2c-0.5,0.8-1.4,1.3-2.4,1.3H19.4c-1,0-1.8-0.5-2.4-1.3c-4-6.3-6.2-13.6-6.2-21.1c0-21.6,17.6-39.2,39.2-39.2
		c21.6,0,39.2,17.6,39.2,39.2C89.2,69.6,87,76.8,83,83.2z M22,56.5c-3.1,0-5.6,2.5-5.6,5.6s2.5,5.6,5.6,5.6c3.1,0,5.6-2.5,5.6-5.6
		S25.1,56.5,22,56.5z M30.4,36.9c-3.1,0-5.6,2.5-5.6,5.6s2.5,5.6,5.6,5.6c3.1,0,5.6-2.5,5.6-5.6S33.5,36.9,30.4,36.9z M59.1,46.8
		c0.3-1.5-0.5-3-2-3.4c-1.5-0.4-3,0.5-3.4,2l-4.4,16.7c-3.5,0.3-6.5,2.7-7.4,6.2c-1.2,4.5,1.5,9.1,6,10.3c4.5,1.2,9.1-1.5,10.3-6
		c0.9-3.5-0.6-7.1-3.4-9.1L59.1,46.8z M50,28.5c-3.1,0-5.6,2.5-5.6,5.6s2.5,5.6,5.6,5.6c3.1,0,5.6-2.5,5.6-5.6S53.1,28.5,50,28.5z
		 M69.6,36.9c-3.1,0-5.6,2.5-5.6,5.6s2.5,5.6,5.6,5.6c3.1,0,5.6-2.5,5.6-5.6S72.7,36.9,69.6,36.9z M78,56.5c-3.1,0-5.6,2.5-5.6,5.6
		s2.5,5.6,5.6,5.6c3.1,0,5.6-2.5,5.6-5.6S81.1,56.5,78,56.5z"/>
    </symbol>

    <symbol id="mail" viewBox="0 0 100 100">
    <path d="M81.7,41.9c-6.8,4.7-13.7,9.4-20.5,14.2c-2.8,2-7.6,6-11.2,6h0h0c-3.5,0-8.3-4-11.2-6c-6.8-4.8-13.6-9.5-20.4-14.2
		c-3.1-2.1-7.5-7-7.5-11c0-4.3,2.3-8,7-8h64.3c3.8,0,7,3.1,7,7C89.2,34.8,85.5,39.2,81.7,41.9z M89.2,77.4c0,3.8-3.1,7-7,7H17.8
		c-3.8,0-7-3.1-7-7V42.7c1.3,1.4,2.8,2.7,4.4,3.8c7.3,4.9,14.6,9.9,21.7,15.1c3.7,2.7,8.2,6,13,6h0h0c4.8,0,9.3-3.3,13-6
		c7.1-5.2,14.5-10.1,21.8-15.1c1.6-1.1,3.1-2.4,4.4-3.8V77.4z"/>
    </symbol>

    <symbol id="potion" viewBox="0 0 100 100">
    <path d="M75.2,84.4H24.8c-6.2,0-8.5-4.2-5.2-9.4l22-34.6V22.9h-2.8c-1.5,0-2.8-1.3-2.8-2.8s1.3-2.8,2.8-2.8h22.4
		c1.5,0,2.8,1.3,2.8,2.8s-1.3,2.8-2.8,2.8h-2.8v17.4l22,34.6C83.6,80.2,81.3,84.4,75.2,84.4z M34.5,62.1h31.1L53.7,43.3L52.8,42
		v-1.6V22.9h-5.6v17.4V42l-0.9,1.4L34.5,62.1z"/>
    </symbol>

    <symbol id="thumbs" viewBox="0 0 100 100">
    <path d="M81.4,52.4c0.3,1,0.4,2,0.4,3c0,2.2-0.6,4.4-1.7,6.3c0.1,0.6,0.1,1.3,0.1,1.9c0,2.8-0.9,5.6-2.6,7.8
		c0.1,8.3-5.5,13.1-13.6,13.1h-1.6h-4.1c-6.2,0-12-1.8-17.7-3.8c-1.3-0.4-4.8-1.7-6-1.7H22.1c-3.1,0-5.6-2.5-5.6-5.6V45.3
		c0-3.1,2.5-5.6,5.6-5.6h12c1.7-1.1,4.7-5.1,6-6.8c1.5-1.9,3-3.8,4.7-5.6c2.6-2.8,1.2-9.7,5.6-14c1-1,2.4-1.6,3.9-1.6
		c4.5,0,8.9,1.6,11,5.9c1.4,2.7,1.5,5.2,1.5,8.1c0,3.1-0.8,5.7-2.1,8.4h7.7c6,0,11.2,5.1,11.2,11.1C83.5,47.8,82.8,50.3,81.4,52.4z
		 M24.8,67.6c-1.5,0-2.8,1.3-2.8,2.8c0,1.5,1.3,2.8,2.8,2.8s2.8-1.3,2.8-2.8C27.6,68.9,26.4,67.6,24.8,67.6z M72.4,39.7H57
		c0-5.1,4.2-8.8,4.2-14c0-5.1-1-8.4-7-8.4c-2.8,2.8-1.4,9.5-5.6,14c-1.2,1.3-2.3,2.6-3.4,4c-2,2.5-7.2,10-10.6,10h-1.4v27.9h1.4
		c2.4,0,6.5,1.6,8.8,2.4c4.8,1.7,9.8,3.2,14.9,3.2h5.3c4.9,0,8.4-2,8.4-7.3c0-0.8-0.1-1.7-0.2-2.4c1.8-1,2.8-3.5,2.8-5.5
		c0-1-0.3-2.1-0.8-3c1.5-1.4,2.3-3.1,2.3-5.2c0-1.4-0.6-3.4-1.5-4.5c2.1,0,3.3-4,3.3-5.6C78,42.3,75.3,39.7,72.4,39.7z"/>
    </symbol>

    <symbol id="trophy" viewBox="0 0 100 100">
    <path d="M86.3,38.3c0,8.3-10,17.5-23.7,18.1c-1.7,2.2-3.4,3.5-4.2,4.2c-2.3,2.1-2.9,4.3-2.9,7.1s1.4,5.6,5.6,5.6s8.4,2.8,8.4,7V83
		c0,0.8-0.6,1.4-1.4,1.4H31.8c-0.8,0-1.4-0.6-1.4-1.4v-2.8c0-4.2,4.2-7,8.4-7s5.6-2.8,5.6-5.6s-0.6-5-2.9-7.1
		c-0.8-0.6-2.4-1.9-4.2-4.2c-13.6-0.7-23.7-9.8-23.7-18.1v-5.6c0-2.3,1.9-4.2,4.2-4.2h12.6v-4.2c0-3.8,3.1-7,7-7h25.2
		c3.8,0,7,3.1,7,7v4.2h12.6c2.3,0,4.2,1.9,4.2,4.2V38.3z M30.4,34.1H19.2v4.2c0,4.3,5.8,10.2,14.4,12C31.8,46.3,30.4,41,30.4,34.1z
		 M80.8,34.1H69.6c0,6.9-1.4,12.2-3.2,16.2c8.6-1.8,14.4-7.7,14.4-12V34.1z"/>
    </symbol>

    <symbol id="bolt" viewBox="0 0 100 100">
    <path d="M69.4,38.4L45.8,88.9c-0.3,0.7-1,1.1-1.8,1.1c-0.2,0-0.4,0-0.6-0.1c-1-0.3-1.5-1.2-1.3-2.1l8.6-35.3l-17.7,4.4
		c-0.2,0-0.3,0-0.5,0c-0.5,0-1-0.2-1.4-0.5c-0.5-0.4-0.7-1.1-0.6-1.7l8.8-36c0.2-0.8,1-1.4,1.9-1.4h14.3c1.1,0,2,0.8,2,1.8
		c0,0.3-0.1,0.5-0.2,0.8l-7.5,20.2l17.3-4.3c0.2,0,0.3-0.1,0.5-0.1c0.6,0,1.1,0.3,1.5,0.7C69.6,37,69.7,37.7,69.4,38.4z"/>
    </symbol>

    <symbol id="openclose" viewBox="0 0 100 100">
    <path d="M66.8,43.8H55.6V32.6c0-1.5-1.3-2.8-2.8-2.8h-5.6c-1.5,0-2.8,1.3-2.8,2.8v11.2H33.3c-1.5,0-2.8,1.3-2.8,2.8v5.6
		c0,1.5,1.3,2.8,2.8,2.8h11.2v11.2c0,1.5,1.3,2.8,2.8,2.8h5.6c1.5,0,2.8-1.3,2.8-2.8V55h11.2c1.5,0,2.8-1.3,2.8-2.8v-5.6
		C69.6,45.1,68.3,43.8,66.8,43.8z"/>
    <path d="M50,83c-18.5,0-33.6-15-33.6-33.6s15-33.6,33.6-33.6c18.5,0,33.6,15,33.6,33.6S68.5,83,50,83z M69.6,46.6
			c0-1.5-1.3-2.8-2.8-2.8H55.6V32.7c0-1.5-1.3-2.8-2.8-2.8h-5.6c-1.5,0-2.8,1.3-2.8,2.8v11.2H33.2c-1.5,0-2.8,1.3-2.8,2.8v5.6
			c0,1.5,1.3,2.8,2.8,2.8h11.2v11.2c0,1.5,1.3,2.8,2.8,2.8h5.6c1.5,0,2.8-1.3,2.8-2.8V55h11.2c1.5,0,2.8-1.3,2.8-2.8V46.6z"/>
    </symbol>
</svg>
