<?xml version="1.0" encoding="utf-8"?>
<!-- Generator: Adobe Illustrator 21.1.0, SVG Export Plug-In . SVG Version: 6.00 Build 0)  -->
<svg version="1.1" id="Layer_1" xmlns="http://www.w3.org/2000/svg" xmlns:xlink="http://www.w3.org/1999/xlink" x="0px" y="0px"
	 viewBox="0 0 100 100" style="enable-background:new 0 0 100 100;" xml:space="preserve">
<style type="text/css">
	.st0{fill:#2FAC66;}
	.st1{fill:#40443F;}
</style>
<circle class="st0" cx="50" cy="50" r="39.9"/>
<circle class="st1" cx="50" cy="50" r="2.3"/>
<path class="st1" d="M80.5,47.7H52.3V19.5c0-1.3-1.1-2.3-2.3-2.3s-2.3,1.1-2.3,2.3v28.2H19.5c-1.3,0-2.3,1.1-2.3,2.3
	c0,1.3,1.1,2.3,2.3,2.3h28.2v28.2c0,1.3,1.1,2.3,2.3,2.3s2.3-1.1,2.3-2.3V52.3h28.2c1.3,0,2.3-1.1,2.3-2.3
	C82.9,48.7,81.8,47.7,80.5,47.7z"/>
<g>
</g>
<g>
</g>
<g>
</g>
<g>
</g>
<g>
</g>
<g>
</g>
</svg>
