<svg version="1.1"
     xmlns="http://www.w3.org/2000/svg">

    <symbol id="youtube" viewBox="0 0 100 100">
        <path d="M77.4,24.2c1.5,0.2,4.9,0.2,7.9,3.3c0,0,2.4,2.4,3.1,7.8c0.8,6.3,0.8,12.7,0.8,12.7v5.9c0,0,0,6.3-0.8,12.7
		c-0.7,5.4-3.1,7.8-3.1,7.8c-3,3.1-6.3,3.1-7.9,3.3c0,0-10.9,0.8-27.4,0.8c-20.3-0.2-26.6-0.8-26.6-0.8c-1.7-0.3-5.7-0.2-8.6-3.3
		c0,0-2.4-2.4-3.1-7.8c-0.8-6.3-0.8-12.7-0.8-12.7v-5.9c0,0,0-6.3,0.8-12.7c0.7-5.4,3.1-7.8,3.1-7.8c3-3.1,6.3-3.1,7.9-3.3
		c0,0,10.9-0.8,27.4-0.8C66.5,23.4,77.4,24.2,77.4,24.2z M63,50.1L41.9,39V61L63,50.1z"/>
    </symbol>

    <symbol id="whatsapp" viewBox="0 0 100 100">
        <path d="M83.5,50c0,18.1-14.7,32.9-32.9,32.9c-5.5,0-11-1.4-15.9-4.1l-18.2,5.8L22.4,67c-3.1-5.1-4.7-11-4.7-17
		c0-18.1,14.7-32.9,32.9-32.9S83.5,31.8,83.5,50z M78,50c0-15.1-12.3-27.4-27.4-27.4S23.2,34.9,23.2,50c0,5.8,1.8,11.4,5.2,16.1
		L25,76.2l10.6-3.4c4.4,2.9,9.7,4.5,15.1,4.5C65.7,77.4,78,65.1,78,50z M67.6,58.5c0.1,0.2,0.1,0.5,0.1,0.7c0,1.1-0.3,2.3-0.7,3.3
		c-1,2.4-5.1,4-7.5,4c-2.1,0-6.4-1.8-8.3-2.7c-6.2-2.8-10.1-7.7-13.9-13.2c-1.7-2.4-3.1-5.5-3.1-8.5v-0.3c0.1-2.9,1.1-4.9,3.2-6.9
		c0.7-0.6,1.4-1,2.3-1c0.5,0,1,0.1,1.6,0.1c1.2,0,1.4,0.3,1.8,1.5c0.3,0.7,2.5,6.7,2.5,7.1c0,1.7-3,3.5-3,4.5c0,0.2,0.1,0.4,0.2,0.7
		c1,2.1,2.8,4.4,4.4,6c2,1.9,4.1,3.2,6.6,4.4c0.3,0.2,0.6,0.3,1,0.3c1.3,0,3.5-4.2,4.6-4.2C60.2,54.3,67.3,58,67.6,58.5z"/>
    </symbol>

    <symbol id="twitter" viewBox="0 0 100 100">
        <path d="M83.5,71.8c0,6.9-5.6,12.6-12.6,12.6H29.1c-6.9,0-12.6-5.6-12.6-12.6V29.9c0-6.9,5.6-12.6,12.6-12.6h41.9
		c6.9,0,12.6,5.6,12.6,12.6V71.8z M67.1,39.9c1.9-1.1,3.4-3,4.1-5.1c-1.8,1-3.8,1.8-5.8,2.2c-1.7-1.8-4.1-2.9-6.7-2.9
		c-5.1,0-9.2,4.1-9.2,9.2c0,0.7,0,1.4,0.2,2.1c-7.6-0.4-14.4-4-18.9-9.6c-0.8,1.4-1.3,3-1.3,4.6c0,3.2,1.5,6,4,7.6
		c-1.5,0-3-0.5-4.4-1.1c0,0,0,0,0,0.1c0,4.5,3.4,8.2,7.5,9c-0.8,0.2-1.4,0.3-2.2,0.3c-0.6,0-1.1-0.1-1.7-0.2
		c1.2,3.6,4.5,6.3,8.6,6.4c-3.1,2.4-7.1,3.9-11.4,3.9c-0.7,0-1.5,0-2.2-0.1c4.1,2.6,8.9,4.1,14,4.1c16.8,0,26.1-14,26.1-26.1
		c0-0.4,0-0.8,0-1.2c1.8-1.3,3.4-2.9,4.6-4.8C70.7,39.1,68.9,39.6,67.1,39.9z"/>
    </symbol>

    <symbol id="facebook" viewBox="0 0 100 100">
        <path d="M83.5,29.9v41.9c0,6.9-5.6,12.6-12.6,12.6h-8.2v-26h8.7l1.3-10.1h-10v-6.5c0-2.9,0.8-4.9,5-4.9l5.3,0v-9
		c-0.9-0.1-4.1-0.4-7.8-0.4c-7.7,0-13,4.7-13,13.3v7.5h-8.7v10.1h8.7v26H29.1c-6.9,0-12.6-5.6-12.6-12.6V29.9
		c0-6.9,5.6-12.6,12.6-12.6h41.9C77.9,17.4,83.5,23,83.5,29.9z"/>
    </symbol>

</svg>
