<svg version="1.1"
	 id="Layer_1"
	 xmlns="http://www.w3.org/2000/svg"
	 viewBox="0 0 100 100">

<style type="text/css">
	.st0{fill:#FF0000;}
</style>
	<path class="st0" d="M76.9,24.2c1.5,0.2,4.9,0.2,7.9,3.3c0,0,2.4,2.4,3.1,7.8c0.8,6.3,0.8,12.7,0.8,12.7v5.9c0,0,0,6.3-0.8,12.7
		c-0.7,5.4-3.1,7.8-3.1,7.8c-3,3.1-6.3,3.1-7.9,3.3c0,0-10.9,0.8-27.4,0.8C29.3,78.2,23,77.6,23,77.6c-1.7-0.3-5.7-0.2-8.6-3.3
		c0,0-2.4-2.4-3.1-7.8c-0.8-6.3-0.8-12.7-0.8-12.7v-5.9c0,0,0-6.3,0.8-12.7c0.7-5.4,3.1-7.8,3.1-7.8c3-3.1,6.3-3.1,7.9-3.3
		c0,0,10.9-0.8,27.4-0.8S76.9,24.2,76.9,24.2z M62.6,50.1L41.5,39V61L62.6,50.1z"/>

</svg>
