<?xml version="1.0" standalone="no"?>
<!DOCTYPE svg PUBLIC "-//W3C//DTD SVG 20010904//EN"
 "http://www.w3.org/TR/2001/REC-SVG-20010904/DTD/svg10.dtd">
<svg version="1.0" xmlns="http://www.w3.org/2000/svg"
 width="1000.000000pt" height="1000.000000pt" viewBox="0 0 1000.000000 1000.000000"
 preserveAspectRatio="xMidYMid meet">
<metadata>
Created by potrace 1.11, written by Peter Selinger 2001-2013
</metadata>
<g transform="translate(0.000000,1000.000000) scale(0.100000,-0.100000)"
fill="#000000" stroke="none">
<path d="M4789 9934 c-577 -104 -990 -598 -989 -1184 1 -406 196 -772 531
-996 405 -270 933 -270 1338 0 335 224 530 590 531 996 1 590 -415 1084 -997
1185 -105 18 -311 18 -414 -1z"/>
<path d="M970 7835 c-82 -18 -211 -82 -271 -134 -110 -96 -186 -255 -196 -410
-15 -251 122 -484 346 -585 92 -41 1027 -255 1641 -375 407 -79 904 -159 1240
-199 l65 -7 -3 -280 c-6 -655 -42 -1365 -98 -1955 -86 -908 -229 -1605 -461
-2260 -75 -213 -202 -543 -259 -675 -26 -60 -53 -132 -60 -160 -18 -68 -18
-227 1 -299 52 -201 230 -379 431 -431 74 -19 220 -19 303 0 135 32 277 132
352 249 56 85 271 632 406 1031 169 502 303 1057 379 1583 l18 122 196 0 196
0 18 -122 c113 -774 290 -1401 656 -2328 99 -250 138 -319 222 -396 112 -102
250 -154 413 -154 168 0 302 56 420 174 121 122 175 254 175 426 0 113 -11
159 -74 305 -60 140 -192 484 -263 685 -232 662 -371 1345 -457 2250 -56 590
-92 1300 -98 1955 l-3 280 65 7 c336 40 833 120 1240 199 614 120 1549 334
1641 375 334 150 452 581 243 887 -60 87 -119 138 -219 188 -101 50 -205 73
-305 66 -41 -3 -183 -31 -315 -62 -1293 -305 -2095 -445 -2925 -511 -298 -24
-961 -24 -1260 -1 -826 66 -1642 209 -2925 512 -268 64 -367 74 -475 50z"/>
</g>
</svg>
